HIERARCHY
ROOT Hips
{
 OFFSET 0.000000 0.000000 0.000000
 CHANNELS 6 Xposition Yposition Zposition Yrotation Xrotation Zrotation
 JOINT Chest
 {
  OFFSET 0.000000 9.581000 -0.001100
  CHANNELS 3 Yrotation Xrotation Zrotation
  JOINT Chest2
  {
   OFFSET 0.000000 9.561100 0.002200
   CHANNELS 3 Yrotation Xrotation Zrotation
   JOINT Chest3
   {
    OFFSET 0.000000 9.521100 0.000000
    CHANNELS 3 Yrotation Xrotation Zrotation
    JOINT Chest4
    {
     OFFSET 0.000000 9.511400 0.000000
     CHANNELS 3 Yrotation Xrotation Zrotation
     JOINT Neck
     {
      OFFSET 0.000000 14.375100 0.000000
      CHANNELS 3 Yrotation Xrotation Zrotation
      JOINT Head
      {
       OFFSET 0.000000 8.901200 0.004600
       CHANNELS 3 Yrotation Xrotation Zrotation
       End Site
       {
        OFFSET 0.000000 16.962200 0.002400
       }
      }
     }
     JOINT RightCollar
     {
      OFFSET -2.920100 9.518800 0.000000
      CHANNELS 3 Yrotation Xrotation Zrotation
      JOINT RightShoulder
      {
       OFFSET -13.664500 0.000000 0.000000
       CHANNELS 3 Yrotation Xrotation Zrotation
       JOINT RightElbow
       {
        OFFSET 0.000000 -29.999200 0.000000
        CHANNELS 3 Yrotation Xrotation Zrotation
        JOINT RightWrist
        {
         OFFSET 0.000000 -24.253600 0.000000
         CHANNELS 3 Yrotation Xrotation Zrotation
         End Site
         {
          OFFSET 0.000000 -17.918900 0.000000
         }
        }
       }
      }
     }
     JOINT LeftCollar
     {
      OFFSET 2.920100 9.518800 0.000000
      CHANNELS 3 Yrotation Xrotation Zrotation
      JOINT LeftShoulder
      {
       OFFSET 13.664500 0.000000 0.000000
       CHANNELS 3 Yrotation Xrotation Zrotation
       JOINT LeftElbow
       {
        OFFSET 0.000000 -29.999200 0.000000
        CHANNELS 3 Yrotation Xrotation Zrotation
        JOINT LeftWrist
        {
         OFFSET 0.000000 -24.253600 0.000000
         CHANNELS 3 Yrotation Xrotation Zrotation
         End Site
         {
          OFFSET 0.000000 -17.918900 0.000000
         }
        }
       }
      }
     }
    }
   }
  }
 }
 JOINT RightHip
 {
  OFFSET -7.797300 0.005300 0.000500
  CHANNELS 3 Yrotation Xrotation Zrotation
  JOINT RightKnee
  {
   OFFSET 0.000000 -40.663400 -0.000500
   CHANNELS 3 Yrotation Xrotation Zrotation
   JOINT RightAnkle
   {
    OFFSET 0.000000 -39.523700 -0.000900
    CHANNELS 3 Yrotation Xrotation Zrotation
    JOINT RightToe
    {
     OFFSET 0.000000 -6.418000 14.485300
     CHANNELS 3 Yrotation Xrotation Zrotation
     End Site
     {
      OFFSET 0.000000 -1.465200 6.326400
     }
    }
   }
  }
 }
 JOINT LeftHip
 {
  OFFSET 7.797300 0.005300 0.000500
  CHANNELS 3 Yrotation Xrotation Zrotation
  JOINT LeftKnee
  {
   OFFSET 0.000000 -40.663400 -0.000500
   CHANNELS 3 Yrotation Xrotation Zrotation
   JOINT LeftAnkle
   {
    OFFSET 0.000000 -39.523700 -0.000900
    CHANNELS 3 Yrotation Xrotation Zrotation
    JOINT LeftToe
    {
     OFFSET 0.000000 -6.418000 14.485300
     CHANNELS 3 Yrotation Xrotation Zrotation
     End Site
     {
      OFFSET 0.000000 -1.465200 6.326400
     }
    }
   }
  }
 }
}
MOTION
Frames: 8
Frame Time: 0.008333
-12.759668 126.876197 -5.116994 -171.480194 -44.957258 -4.250951 -0.625748 25.623966 2.059059 -0.163046 4.168566 0.346160 -0.239917 6.655878 0.551481 -0.593679 21.124997 1.691849 2.353402 15.014609 -2.816894 3.120492 -9.913636 -3.523220 -0.106201 1.209927 1.885025 5.460637 -9.251320 -13.746975 -68.590298 -48.909356 122.448360 -2.899482 10.785147 6.988449 -10.148904 -2.962082 0.604276 -8.090120 -10.216181 12.737172 46.386621 -40.616712 -99.577477 2.018839 -0.358175 -15.321479 -10.887617 -13.831009 -10.278735 -166.956915 75.146388 -170.950356 23.370394 22.220030 -5.769700 -0.000236 -0.001474 -0.000104 11.672776 -16.472436 -9.418389 7.047351 69.942057 -5.873287 5.843187 -11.587303 14.357443 0.005488 -0.000127 0.002431
-12.760632 126.876273 -5.116532 -171.468218 -44.959929 -4.261711 -0.621076 25.630951 2.068354 -0.161854 4.176821 0.347905 -0.249053 6.645713 0.550298 -0.581211 21.135252 1.703863 2.319550 14.980478 -2.874045 3.100835 -9.963010 -3.608762 -0.134913 1.190354 1.879604 5.513400 -9.143249 -13.796584 -68.571264 -48.906843 122.462991 -2.886369 10.806307 7.021705 -10.161754 -2.997371 0.631988 -8.196664 -10.125061 12.859047 46.337491 -40.588341 -99.598090 2.057332 -0.408246 -15.307572 -10.888342 -13.824525 -10.276827 -166.973204 75.149119 -170.962608 23.365401 22.221940 -5.770153 -0.000031 -0.001804 -0.000014 11.655186 -16.482964 -9.424139 7.072444 69.950388 -5.845587 5.832488 -11.566527 14.364360 0.004676 0.003515 0.002072
-12.759569 126.876779 -5.116675 -171.461097 -44.964438 -4.281153 -0.618366 25.640051 2.082543 -0.161269 4.175824 0.350120 -0.249239 6.653264 0.552109 -0.576159 21.151153 1.720224 2.304316 14.947485 -2.908057 3.079217 -10.022908 -3.721066 -0.148547 1.156342 1.858109 5.559693 -9.034824 -13.842127 -68.544186 -48.904010 122.466753 -2.873775 10.831489 7.055730 -10.172818 -3.047747 0.650973 -8.288276 -10.031418 12.977100 46.280613 -40.560731 -99.612885 2.088860 -0.454842 -15.290675 -10.885812 -13.813966 -10.263840 -166.976684 75.153101 -170.957131 23.366904 22.231446 -5.772423 0.000664 -0.000929 0.000294 11.636806 -16.492299 -9.418398 7.070997 69.956867 -5.839166 5.842799 -11.558632 14.356325 0.004743 0.005763 0.002101
-12.760074 126.876477 -5.116026 -171.456797 -44.962213 -4.288032 -0.618108 25.644213 2.088109 -0.161162 4.172382 0.350259 -0.252034 6.665318 0.557875 -0.580225 21.144678 1.720815 2.281853 14.910942 -2.979084 3.071878 -10.062566 -3.784056 -0.161152 1.140942 1.841945 5.613970 -8.927763 -13.888503 -68.508598 -48.897951 122.458896 -2.858854 10.863088 7.092551 -10.176420 -3.077192 0.676655 -8.373748 -9.938962 13.086346 46.215564 -40.532692 -99.618961 2.112590 -0.500115 -15.271025 -10.888526 -13.815626 -10.261535 -166.970888 75.154369 -170.950394 23.368834 22.237696 -5.778653 0.001367 -0.001032 0.000606 11.616408 -16.513066 -9.435144 7.093241 69.965040 -5.804670 5.869425 -11.549215 14.335757 0.004450 0.002525 0.001972
-12.760815 126.876270 -5.115492 -171.455188 -44.960333 -4.291165 -0.620007 25.645234 2.090055 -0.164196 4.178269 0.353867 -0.249996 6.659396 0.555130 -0.582786 21.146226 1.723963 2.261251 14.876952 -3.044068 3.067058 -10.097193 -3.843054 -0.169438 1.124823 1.817560 5.662880 -8.817868 -13.924294 -68.462862 -48.891866 122.438801 -2.843094 10.898421 7.130442 -10.181641 -3.105367 0.701210 -8.454611 -9.841744 13.193433 46.148866 -40.504137 -99.614966 2.134021 -0.547066 -15.251889 -10.888755 -13.817668 -10.261599 -166.971635 75.155393 -170.951673 23.370415 22.240419 -5.775565 0.001924 -0.001245 0.000852 11.599459 -16.527066 -9.440267 7.132298 69.970624 -5.771855 5.872528 -11.534817 14.332686 0.003342 0.002306 0.001481
-12.761599 126.876182 -5.115068 -171.453151 -44.958996 -4.293978 -0.618604 25.647461 2.096120 -0.163421 4.176989 0.353020 -0.254913 6.658797 0.554304 -0.582916 21.145550 1.723684 2.239007 14.845754 -3.099294 3.065364 -10.127409 -3.899806 -0.173970 1.120576 1.809996 5.697503 -8.741014 -13.957809 -68.358603 -48.889739 122.365936 -2.827219 10.932540 7.167900 -10.196998 -3.140051 0.756642 -8.523067 -9.735871 13.267967 46.091311 -40.478038 -99.606487 2.157918 -0.588116 -15.234675 -10.891266 -13.819609 -10.264822 -166.992457 75.156550 -170.974766 23.370743 22.240351 -5.771550 0.001018 -0.001094 0.000451 11.587990 -16.538749 -9.444928 7.146159 69.975098 -5.757069 5.874155 -11.515734 14.332536 0.002801 0.002516 0.001241
-12.761550 126.876402 -5.114943 -171.450493 -44.959483 -4.302100 -0.613836 25.649563 2.105894 -0.162464 4.177024 0.352102 -0.248926 6.661992 0.558952 -0.582701 21.145225 1.729070 2.215585 14.813920 -3.157050 3.056721 -10.155373 -3.947361 -0.198269 1.109736 1.791191 5.718539 -8.711614 -13.955751 -68.157376 -48.890590 122.207324 -2.810779 10.964839 7.205754 -10.211315 -3.153433 0.766003 -8.611153 -9.648183 13.383965 46.037337 -40.454055 -99.597317 2.184437 -0.626336 -15.212045 -10.898077 -13.816860 -10.262324 -167.007686 75.159567 -170.994171 23.374478 22.236271 -5.766814 0.000878 -0.000908 0.000389 11.578094 -16.543569 -9.440977 7.130509 69.973423 -5.773038 5.886705 -11.510072 14.330780 0.002111 0.001455 0.000935
-12.761347 126.876835 -5.114998 -171.452963 -44.961899 -4.307349 -0.607352 25.652493 2.114513 -0.160504 4.176650 0.347987 -0.245584 6.663670 0.560785 -0.567802 21.148805 1.737720 2.184656 14.781465 -3.203095 3.055552 -10.176698 -3.994223 -0.228598 1.099855 1.780529 5.787421 -8.546868 -14.035534 -68.192973 -48.866297 122.253547 -2.793564 10.998919 7.242523 -10.233141 -3.167406 0.780579 -8.697997 -9.560271 13.492140 45.977752 -40.429471 -99.580512 2.210147 -0.667280 -15.185030 -10.899771 -13.811287 -10.261095 -167.028758 75.162917 -171.015331 23.375390 22.233040 -5.767606 0.000285 0.000217 0.000126 11.576321 -16.544547 -9.434457 7.144834 69.971865 -5.758416 5.887188 -11.500341 14.331063 0.001433 0.001321 0.000635
